<svg xmlns="http://www.w3.org/2000/svg" viewBox="0 0 32 32"><path fill="#ffd766" d="M26,12a10,10,0,1,0-16,8v3H22V20A10,10,0,0,0,26,12Z"/><path fill="#cccac8" d="M12,26h8a0,0,0,0,1,0,0v0a4,4,0,0,1-4,4h0a4,4,0,0,1-4-4v0A0,0,0,0,1,12,26Z"/><rect width="12" height="4" x="10" y="23" fill="#3e5a72"/><polygon fill="#45ace5" points="19 23 13 23 13 14 16 11 19 14 19 23"/><polygon fill="#a56e49" points="13 14 13 16 19 16 19 14 16 11 13 14"/><path fill="#1a2833" d="M16,1A11,11,0,0,0,5,12a10.89,10.89,0,0,0,4,8.47V27a1,1,0,0,0,1,1h1.44a5,5,0,0,0,9.12,0H22a1,1,0,0,0,1-1V20.47A10.89,10.89,0,0,0,27,12,11,11,0,0,0,16,1Zm0,28a3,3,0,0,1-2.22-1h4.44A3,3,0,0,1,16,29Zm5-3H11V24H21Zm-7-9h1v5H14Zm4,5H17V17h1Zm0-7H14v-.59l2-2,2,2Zm3.4,4.19a1,1,0,0,0-.4.8v2H20V14a1,1,0,0,0-.29-.71l-3-3a1,1,0,0,0-1.42,0l-3,3A1,1,0,0,0,12,14v8H11V20a1,1,0,0,0-.4-.8,9,9,0,1,1,10.8,0Z"/></svg>