<?xml version="1.0" encoding="UTF-8" standalone="no"?>
<svg xmlns:dc="http://purl.org/dc/elements/1.1/" xmlns:cc="http://creativecommons.org/ns#" xmlns:rdf="http://www.w3.org/1999/02/22-rdf-syntax-ns#" xmlns:svg="http://www.w3.org/2000/svg" xmlns="http://www.w3.org/2000/svg" xmlns:sodipodi="http://sodipodi.sourceforge.net/DTD/sodipodi-0.dtd" xmlns:inkscape="http://www.inkscape.org/namespaces/inkscape" width="64" height="64" viewBox="0 0 64 64" id="svg5742" version="1.1" inkscape:version="0.91 r" sodipodi:docname="Connect-join-manage-network-team-unite.svg">
  <defs id="defs5744"/>
  <sodipodi:namedview id="base" pagecolor="#ffffff" bordercolor="#666666" borderopacity="1.0" inkscape:pageopacity="0.0" inkscape:pageshadow="2" inkscape:zoom="2.2677136" inkscape:cx="-52.732405" inkscape:cy="64.988253" inkscape:document-units="px" inkscape:current-layer="layer1" showgrid="true" units="px" inkscape:window-width="1309" inkscape:window-height="744" inkscape:window-x="57" inkscape:window-y="24" inkscape:window-maximized="1" showguides="true" inkscape:guide-bbox="true" inkscape:snap-global="false"/>
  
  <g inkscape:label="Layer 1" inkscape:groupmode="layer" id="layer1" transform="translate(0,-988.36216)">
    <g transform="translate(610.53435,334.94912)" id="g15273">
      <path style="opacity:1;fill:#79a1e8;fill-opacity:1;stroke:#000000;stroke-width:1;stroke-linecap:butt;stroke-linejoin:round;stroke-miterlimit:4;stroke-dasharray:none;stroke-dashoffset:0;stroke-opacity:1" d="m -579.1213,685.41294 c 10e-6,7.89406 -6.39941,14.29348 -14.2935,14.29348 -7.89409,0 -14.29352,-6.39942 -14.2935,-14.29348 4e-5,-7.89406 6.39944,-14.29339 14.2935,-14.29339 7.89406,0 14.29347,6.39933 14.2935,14.29339 z" id="path9968" inkscape:connector-curvature="0" sodipodi:nodetypes="sssss"/>
      <path sodipodi:nodetypes="ccccc" inkscape:connector-curvature="0" id="path9974" d="m -592.37164,685.34228 1.04317,3.30168 -2.08633,6.8329 -2.08633,-6.8329 1.04316,-3.30168" style="fill:#f9d015;fill-opacity:1;fill-rule:evenodd;stroke:#000000;stroke-width:1px;stroke-linecap:butt;stroke-linejoin:miter;stroke-opacity:1"/>
      <path sodipodi:nodetypes="cccc" inkscape:connector-curvature="0" id="path9976" d="m -591.01878,683.34523 c 0,0.99925 -0.76088,2.06897 -1.46696,2.07834 l -1.85814,0 c -0.72036,0 -1.44657,-0.93785 -1.46694,-2.07834" style="opacity:1;fill:#7693dd;fill-opacity:1;stroke:#000000;stroke-width:1;stroke-linecap:round;stroke-linejoin:round;stroke-miterlimit:4;stroke-dasharray:none;stroke-dashoffset:0;stroke-opacity:1"/>
      <path style="opacity:1;fill:#cfddf7;fill-opacity:1;stroke:#000000;stroke-width:1;stroke-linecap:butt;stroke-linejoin:round;stroke-miterlimit:4;stroke-dasharray:none;stroke-dashoffset:0;stroke-opacity:1" d="m -585.58052,697.37011 c -2.24988,1.47711 -4.94175,2.33631 -7.83428,2.33631 -2.88908,0 -5.57796,-0.85714 -7.8262,-2.331 l 0.002,-0.0573 0,-8.90231 c 0,-1.92795 1.5557,-3.48662 3.4881,-3.48007 l 0.99334,0 3.34232,9.69886 3.3423,-9.69886 0.99336,0 c 1.93239,0 3.48808,1.55212 3.48808,3.48007 l 0,8.94235 z" id="path9980" inkscape:connector-curvature="0" sodipodi:nodetypes="csccsscccsscc"/>
      <path style="fill:none;fill-rule:evenodd;stroke:#000000;stroke-width:1px;stroke-linecap:round;stroke-linejoin:miter;stroke-opacity:1" d="m -582.39816,700.58729 0,5.0629" id="path9986" inkscape:connector-curvature="0"/>
      <path inkscape:connector-curvature="0" id="path9988" d="m -582.39816,707.14719 0,1.7455" style="fill:none;fill-rule:evenodd;stroke:#000000;stroke-width:0.99999994px;stroke-linecap:round;stroke-linejoin:miter;stroke-opacity:1"/>
      <path inkscape:connector-curvature="0" id="path9990" d="m -599.12343,713.87599 6.15658,10e-5" style="fill:none;fill-rule:evenodd;stroke:#000000;stroke-width:0.99999994px;stroke-linecap:round;stroke-linejoin:miter;stroke-opacity:1"/>
      <path style="fill:none;fill-rule:evenodd;stroke:#000000;stroke-width:0.99999994px;stroke-linecap:round;stroke-linejoin:miter;stroke-opacity:1" d="m -591.36674,713.87599 2.56299,10e-5" id="path9992" inkscape:connector-curvature="0"/>
      <path style="fill:none;fill-rule:evenodd;stroke:#000000;stroke-width:0.99999994px;stroke-linecap:round;stroke-linejoin:miter;stroke-opacity:1" d="m -589.23727,711.87609 -9.04685,-10e-5" id="path9994" inkscape:connector-curvature="0"/>
      <path inkscape:connector-curvature="0" id="path9996" d="m -599.913,711.87609 -3.1696,-10e-5" style="fill:none;fill-rule:evenodd;stroke:#000000;stroke-width:0.99999994px;stroke-linecap:round;stroke-linejoin:miter;stroke-opacity:1"/>
      <circle r="1.4709709" cy="706.01495" cx="-593.1311" id="circle9998" style="opacity:1;fill:#f9d015;fill-opacity:1;stroke:#000000;stroke-width:1;stroke-linecap:round;stroke-linejoin:round;stroke-miterlimit:4;stroke-dasharray:none;stroke-dashoffset:0;stroke-opacity:1"/>
      <path style="fill:none;fill-rule:evenodd;stroke:#000000;stroke-width:0.99999994px;stroke-linecap:round;stroke-linejoin:miter;stroke-opacity:1" d="m -603.42331,702.38166 1.81242,-1.8121" id="path10000" inkscape:connector-curvature="0"/>
      <path inkscape:connector-curvature="0" id="path10002" d="m -607.66596,706.62426 1.81243,-1.8121" style="fill:none;fill-rule:evenodd;stroke:#000000;stroke-width:0.99999994px;stroke-linecap:round;stroke-linejoin:miter;stroke-opacity:1"/>
      <path inkscape:connector-curvature="0" id="path10004" d="m -605.8537,702.38176 -1.81204,-1.8123" style="fill:none;fill-rule:evenodd;stroke:#000000;stroke-width:0.99999994px;stroke-linecap:round;stroke-linejoin:miter;stroke-opacity:1"/>
      <path style="fill:none;fill-rule:evenodd;stroke:#000000;stroke-width:0.99999994px;stroke-linecap:round;stroke-linejoin:miter;stroke-opacity:1" d="m -601.6111,706.62436 -1.81204,-1.8123" id="path10006" inkscape:connector-curvature="0"/>
      <path inkscape:connector-curvature="0" id="path10008" d="m -569.18245,676.12498 1.81242,-1.8121" style="fill:none;fill-rule:evenodd;stroke:#000000;stroke-width:0.99999994px;stroke-linecap:round;stroke-linejoin:miter;stroke-opacity:1"/>
      <path style="fill:none;fill-rule:evenodd;stroke:#000000;stroke-width:0.99999994px;stroke-linecap:round;stroke-linejoin:miter;stroke-opacity:1" d="m -573.4251,680.36758 1.81243,-1.8121" id="path10010" inkscape:connector-curvature="0"/>
      <path style="fill:none;fill-rule:evenodd;stroke:#000000;stroke-width:0.99999994px;stroke-linecap:round;stroke-linejoin:miter;stroke-opacity:1" d="m -571.61284,676.12508 -1.81204,-1.8123" id="path10012" inkscape:connector-curvature="0"/>
      <path inkscape:connector-curvature="0" id="path10014" d="m -567.37024,680.36768 -1.81204,-1.8123" style="fill:none;fill-rule:evenodd;stroke:#000000;stroke-width:0.99999994px;stroke-linecap:round;stroke-linejoin:miter;stroke-opacity:1"/>
      <circle style="opacity:1;fill:#f9d015;fill-opacity:1;stroke:#000000;stroke-width:1;stroke-linecap:round;stroke-linejoin:round;stroke-miterlimit:4;stroke-dasharray:none;stroke-dashoffset:0;stroke-opacity:1" id="circle10016" cx="-570.90796" cy="693.87506" r="1.4709709"/>
      <path inkscape:connector-curvature="0" id="path10018" d="m -605.54497,657.59505 0,5.0629" style="fill:none;fill-rule:evenodd;stroke:#000000;stroke-width:1px;stroke-linecap:round;stroke-linejoin:miter;stroke-opacity:1"/>
      <path style="fill:none;fill-rule:evenodd;stroke:#000000;stroke-width:0.99999994px;stroke-linecap:round;stroke-linejoin:miter;stroke-opacity:1" d="m -605.54497,664.15495 0,1.7455" id="path10020" inkscape:connector-curvature="0"/>
      <path style="fill:none;fill-rule:evenodd;stroke:#000000;stroke-width:1px;stroke-linecap:round;stroke-linejoin:miter;stroke-opacity:1" d="m -603.54497,665.90045 0,-5.0629" id="path10022" inkscape:connector-curvature="0"/>
      <path inkscape:connector-curvature="0" id="path10024" d="m -603.54497,659.34055 0,-1.7455" style="fill:none;fill-rule:evenodd;stroke:#000000;stroke-width:0.99999994px;stroke-linecap:round;stroke-linejoin:miter;stroke-opacity:1"/>
      <path style="fill:none;fill-rule:evenodd;stroke:#000000;stroke-width:0.99999994px;stroke-linecap:round;stroke-linejoin:miter;stroke-opacity:1" d="m -592.74768,666.18169 6.15658,10e-5" id="path10026" inkscape:connector-curvature="0"/>
      <path inkscape:connector-curvature="0" id="path10028" d="m -584.99099,666.18169 2.56299,10e-5" style="fill:none;fill-rule:evenodd;stroke:#000000;stroke-width:0.99999994px;stroke-linecap:round;stroke-linejoin:miter;stroke-opacity:1"/>
      <path inkscape:connector-curvature="0" id="path10030" d="m -582.86152,664.18179 -9.04685,-10e-5" style="fill:none;fill-rule:evenodd;stroke:#000000;stroke-width:0.99999994px;stroke-linecap:round;stroke-linejoin:miter;stroke-opacity:1"/>
      <path style="fill:none;fill-rule:evenodd;stroke:#000000;stroke-width:0.99999994px;stroke-linecap:round;stroke-linejoin:miter;stroke-opacity:1" d="m -593.53725,664.18179 -3.1696,-10e-5" id="path10032" inkscape:connector-curvature="0"/>
      <circle r="1.4709709" cy="658.13922" cx="-577.43292" id="circle10034" style="opacity:1;fill:#f9d015;fill-opacity:1;stroke:#000000;stroke-width:1;stroke-linecap:round;stroke-linejoin:round;stroke-miterlimit:4;stroke-dasharray:none;stroke-dashoffset:0;stroke-opacity:1"/>
      <path style="fill:none;fill-rule:evenodd;stroke:#000000;stroke-width:1px;stroke-linecap:butt;stroke-linejoin:miter;stroke-opacity:1" d="m -579.06715,685.42082 15.27734,0" id="path10036" inkscape:connector-curvature="0" inkscape:transform-center-x="-14.796875" sodipodi:nodetypes="cc"/>
      <path inkscape:transform-center-x="-11.563654" inkscape:connector-curvature="0" id="path10038" d="m -582.29792,694.28062 12.03912,9.6115" style="fill:none;fill-rule:evenodd;stroke:#000000;stroke-width:1px;stroke-linecap:butt;stroke-linejoin:miter;stroke-opacity:1" inkscape:transform-center-y="9.23205" sodipodi:nodetypes="cc"/>
      <path inkscape:transform-center-y="-9.23205" style="fill:none;fill-rule:evenodd;stroke:#000000;stroke-width:1px;stroke-linecap:butt;stroke-linejoin:miter;stroke-opacity:1" d="m -582.24932,676.52222 11.99052,-9.5727" id="path10040" inkscape:connector-curvature="0" inkscape:transform-center-x="-11.563654" sodipodi:nodetypes="cc"/>
      <path inkscape:connector-curvature="0" id="path10042" d="m -552.67331,698.13166 1.81242,-1.8121" style="fill:none;fill-rule:evenodd;stroke:#000000;stroke-width:0.99999994px;stroke-linecap:round;stroke-linejoin:miter;stroke-opacity:1"/>
      <path style="fill:none;fill-rule:evenodd;stroke:#000000;stroke-width:0.99999994px;stroke-linecap:round;stroke-linejoin:miter;stroke-opacity:1" d="m -556.91596,702.37426 1.81243,-1.8121" id="path10044" inkscape:connector-curvature="0"/>
      <path style="fill:none;fill-rule:evenodd;stroke:#000000;stroke-width:0.99999994px;stroke-linecap:round;stroke-linejoin:miter;stroke-opacity:1" d="m -555.1037,698.13176 -1.81204,-1.8123" id="path10046" inkscape:connector-curvature="0"/>
      <path inkscape:connector-curvature="0" id="path10048" d="m -550.8611,702.37436 -1.81204,-1.8123" style="fill:none;fill-rule:evenodd;stroke:#000000;stroke-width:0.99999994px;stroke-linecap:round;stroke-linejoin:miter;stroke-opacity:1"/>
      <path inkscape:connector-curvature="0" id="path10050" d="m -552.14816,658.83729 0,5.0629" style="fill:none;fill-rule:evenodd;stroke:#000000;stroke-width:1px;stroke-linecap:round;stroke-linejoin:miter;stroke-opacity:1"/>
      <path style="fill:none;fill-rule:evenodd;stroke:#000000;stroke-width:0.99999994px;stroke-linecap:round;stroke-linejoin:miter;stroke-opacity:1" d="m -552.14816,665.39719 0,1.7455" id="path10052" inkscape:connector-curvature="0"/>
      <circle r="1.4709709" cy="673.73132" cx="-554.13562" id="circle10054" style="opacity:1;fill:#f9d015;fill-opacity:1;stroke:#000000;stroke-width:1;stroke-linecap:round;stroke-linejoin:round;stroke-miterlimit:4;stroke-dasharray:none;stroke-dashoffset:0;stroke-opacity:1"/>
      <path sodipodi:nodetypes="sssss" inkscape:connector-curvature="0" id="path9972" d="m -588.39458,678.72352 c 0,2.7663 -2.24763,5.00877 -5.02022,5.00877 -2.77261,0 -5.02024,-2.24247 -5.02024,-5.00877 0,-2.7662 2.24763,-5.00878 5.02024,-5.00878 2.77259,0 5.02022,2.24258 5.02022,5.00878 z" style="opacity:1;fill:#f7931e;fill-opacity:1;stroke:#000000;stroke-width:1;stroke-linecap:round;stroke-linejoin:round;stroke-miterlimit:4;stroke-dasharray:none;stroke-dashoffset:0;stroke-opacity:1"/>
      <g id="g15230">
        <path style="opacity:1;fill:#79a1e8;fill-opacity:1;stroke:#000000;stroke-width:1;stroke-linecap:butt;stroke-linejoin:round;stroke-miterlimit:4;stroke-dasharray:none;stroke-dashoffset:0;stroke-opacity:1" d="m -557.36027,663.56603 c 10e-6,4.09222 -3.3174,7.40962 -7.40963,7.40962 -4.09223,0 -7.40965,-3.3174 -7.40963,-7.40962 10e-6,-4.09221 3.31741,-7.40958 7.40963,-7.40958 4.09221,0 7.40962,3.31737 7.40963,7.40958 z" id="path10058" inkscape:connector-curvature="0" sodipodi:nodetypes="sssss"/>
        <path sodipodi:nodetypes="ccccc" inkscape:connector-curvature="0" id="path10064" d="m -564.22914,662.71052 0.54077,1.93911 -1.08153,4.01303 -1.08154,-4.01303 0.54077,-1.93911" style="fill:#f9d015;fill-opacity:1;fill-rule:evenodd;stroke:#000000;stroke-width:0.99999988px;stroke-linecap:butt;stroke-linejoin:miter;stroke-opacity:1"/>
        <path style="fill:#f9d015;fill-opacity:1;fill-rule:evenodd;stroke:#000000;stroke-width:0.99999988px;stroke-linecap:butt;stroke-linejoin:miter;stroke-opacity:1" d="m -564.22914,662.71052 0.54077,1.93911 -1.08153,4.01303 -1.08154,-4.01303 0.54077,-1.93911" id="path10104" inkscape:connector-curvature="0" sodipodi:nodetypes="ccccc"/>
        <path sodipodi:nodetypes="sssss" inkscape:connector-curvature="0" id="path10062" d="m -562.16746,660.09829 c 0,1.43403 -1.16515,2.59651 -2.60244,2.59651 -1.4373,0 -2.60245,-1.16248 -2.60245,-2.59651 0,-1.43397 1.16515,-2.59651 2.60245,-2.59651 1.43729,0 2.60244,1.16254 2.60244,2.59651 z" style="opacity:1;fill:#f7931e;fill-opacity:1;stroke:#000000;stroke-width:1;stroke-linecap:round;stroke-linejoin:round;stroke-miterlimit:4;stroke-dasharray:none;stroke-dashoffset:0;stroke-opacity:1"/>
        <path style="opacity:1;fill:#cfddf7;fill-opacity:1;stroke:#000000;stroke-width:1;stroke-linecap:butt;stroke-linejoin:round;stroke-miterlimit:4;stroke-dasharray:none;stroke-dashoffset:0;stroke-opacity:1" d="m -560.70867,669.76453 c -1.16633,0.76572 -2.56177,1.21112 -4.06123,1.21112 -1.49768,0 -2.89157,-0.44433 -4.05704,-1.20837 l 0.001,-0.0297 0,-4.61488 c 0,-0.99944 0.80646,-1.80744 1.8082,-1.80405 l 0.51494,0 1.73263,5.02781 1.73262,-5.02781 0.51495,0 c 1.00174,0 1.80819,0.80461 1.80819,1.80405 l 0,4.63563 z" id="path10068" inkscape:connector-curvature="0" sodipodi:nodetypes="csccsscccsscc"/>
      </g>
      <g id="g15249" transform="translate(0,43.69399)">
        <path style="opacity:1;fill:#79a1e8;fill-opacity:1;stroke:#000000;stroke-width:1;stroke-linecap:butt;stroke-linejoin:round;stroke-miterlimit:4;stroke-dasharray:none;stroke-dashoffset:0;stroke-opacity:1" d="m -557.36027,663.56603 c 10e-6,4.09222 -3.3174,7.40962 -7.40963,7.40962 -4.09223,0 -7.40965,-3.3174 -7.40963,-7.40962 10e-6,-4.09221 3.31741,-7.40958 7.40963,-7.40958 4.09221,0 7.40962,3.31737 7.40963,7.40958 z" id="path15251" inkscape:connector-curvature="0" sodipodi:nodetypes="sssss"/>
        <path sodipodi:nodetypes="ccccc" inkscape:connector-curvature="0" id="path15253" d="m -564.22914,662.71052 0.54077,1.93911 -1.08153,4.01303 -1.08154,-4.01303 0.54077,-1.93911" style="fill:#f9d015;fill-opacity:1;fill-rule:evenodd;stroke:#000000;stroke-width:0.99999988px;stroke-linecap:butt;stroke-linejoin:miter;stroke-opacity:1"/>
        <path style="fill:#f9d015;fill-opacity:1;fill-rule:evenodd;stroke:#000000;stroke-width:0.99999988px;stroke-linecap:butt;stroke-linejoin:miter;stroke-opacity:1" d="m -564.22914,662.71052 0.54077,1.93911 -1.08153,4.01303 -1.08154,-4.01303 0.54077,-1.93911" id="path15255" inkscape:connector-curvature="0" sodipodi:nodetypes="ccccc"/>
        <path sodipodi:nodetypes="sssss" inkscape:connector-curvature="0" id="path15257" d="m -562.16746,660.09829 c 0,1.43403 -1.16515,2.59651 -2.60244,2.59651 -1.4373,0 -2.60245,-1.16248 -2.60245,-2.59651 0,-1.43397 1.16515,-2.59651 2.60245,-2.59651 1.43729,0 2.60244,1.16254 2.60244,2.59651 z" style="opacity:1;fill:#f7931e;fill-opacity:1;stroke:#000000;stroke-width:1;stroke-linecap:round;stroke-linejoin:round;stroke-miterlimit:4;stroke-dasharray:none;stroke-dashoffset:0;stroke-opacity:1"/>
        <path style="opacity:1;fill:#cfddf7;fill-opacity:1;stroke:#000000;stroke-width:1;stroke-linecap:butt;stroke-linejoin:round;stroke-miterlimit:4;stroke-dasharray:none;stroke-dashoffset:0;stroke-opacity:1" d="m -560.70867,669.76453 c -1.16633,0.76572 -2.56177,1.21112 -4.06123,1.21112 -1.49768,0 -2.89157,-0.44433 -4.05704,-1.20837 l 0.001,-0.0297 0,-4.61488 c 0,-0.99944 0.80646,-1.80744 1.8082,-1.80405 l 0.51494,0 1.73263,5.02781 1.73262,-5.02781 0.51495,0 c 1.00174,0 1.80819,0.80461 1.80819,1.80405 l 0,4.63563 z" id="path15259" inkscape:connector-curvature="0" sodipodi:nodetypes="csccsscccsscc"/>
      </g>
      <g transform="translate(7.99988,21.84688)" id="g15237">
        <path sodipodi:nodetypes="sssss" inkscape:connector-curvature="0" id="path15239" d="m -557.36027,663.56603 c 10e-6,4.09222 -3.3174,7.40962 -7.40963,7.40962 -4.09223,0 -7.40965,-3.3174 -7.40963,-7.40962 10e-6,-4.09221 3.31741,-7.40958 7.40963,-7.40958 4.09221,0 7.40962,3.31737 7.40963,7.40958 z" style="opacity:1;fill:#79a1e8;fill-opacity:1;stroke:#000000;stroke-width:1;stroke-linecap:butt;stroke-linejoin:round;stroke-miterlimit:4;stroke-dasharray:none;stroke-dashoffset:0;stroke-opacity:1"/>
        <path style="fill:#f9d015;fill-opacity:1;fill-rule:evenodd;stroke:#000000;stroke-width:0.99999988px;stroke-linecap:butt;stroke-linejoin:miter;stroke-opacity:1" d="m -564.22914,662.71052 0.54077,1.93911 -1.08153,4.01303 -1.08154,-4.01303 0.54077,-1.93911" id="path15241" inkscape:connector-curvature="0" sodipodi:nodetypes="ccccc"/>
        <path sodipodi:nodetypes="ccccc" inkscape:connector-curvature="0" id="path15243" d="m -564.22914,662.71052 0.54077,1.93911 -1.08153,4.01303 -1.08154,-4.01303 0.54077,-1.93911" style="fill:#f9d015;fill-opacity:1;fill-rule:evenodd;stroke:#000000;stroke-width:0.99999988px;stroke-linecap:butt;stroke-linejoin:miter;stroke-opacity:1"/>
        <path style="opacity:1;fill:#f7931e;fill-opacity:1;stroke:#000000;stroke-width:1;stroke-linecap:round;stroke-linejoin:round;stroke-miterlimit:4;stroke-dasharray:none;stroke-dashoffset:0;stroke-opacity:1" d="m -562.16746,660.09829 c 0,1.43403 -1.16515,2.59651 -2.60244,2.59651 -1.4373,0 -2.60245,-1.16248 -2.60245,-2.59651 0,-1.43397 1.16515,-2.59651 2.60245,-2.59651 1.43729,0 2.60244,1.16254 2.60244,2.59651 z" id="path15245" inkscape:connector-curvature="0" sodipodi:nodetypes="sssss"/>
        <path sodipodi:nodetypes="csccsscccsscc" inkscape:connector-curvature="0" id="path15247" d="m -560.70867,669.76453 c -1.16633,0.76572 -2.56177,1.21112 -4.06123,1.21112 -1.49768,0 -2.89157,-0.44433 -4.05704,-1.20837 l 0.001,-0.0297 0,-4.61488 c 0,-0.99944 0.80646,-1.80744 1.8082,-1.80405 l 0.51494,0 1.73263,5.02781 1.73262,-5.02781 0.51495,0 c 1.00174,0 1.80819,0.80461 1.80819,1.80405 l 0,4.63563 z" style="opacity:1;fill:#cfddf7;fill-opacity:1;stroke:#000000;stroke-width:1;stroke-linecap:butt;stroke-linejoin:round;stroke-miterlimit:4;stroke-dasharray:none;stroke-dashoffset:0;stroke-opacity:1"/>
      </g>
    </g>
  </g>

	<metadata>
		<rdf:RDF xmlns:rdf="http://www.w3.org/1999/02/22-rdf-syntax-ns#" xmlns:rdfs="http://www.w3.org/2000/01/rdf-schema#" xmlns:dc="http://purl.org/dc/elements/1.1/">
			<rdf:Description about="https://iconscout.com/legal#licenses" dc:title="Connect-join-manage-network-team-unite" dc:description="Connect-join-manage-network-team-unite" dc:publisher="Iconscout" dc:date="2017-02-15" dc:format="image/svg+xml" dc:language="en">
				<dc:creator>
					<rdf:Bag>
						<rdf:li>Devendra Karkar</rdf:li>
					</rdf:Bag>
				</dc:creator>
			</rdf:Description>
		</rdf:RDF>
    </metadata></svg>
