<svg xmlns="http://www.w3.org/2000/svg" viewBox="0 0 64 64"><g data-name="Line Graph Up"><path fill="#ff5023" d="M59,15H53v2h3.586l-17,17H22a1,1,0,0,0-.707.293l-16,16,1.414,1.414L22.414,36H40a1,1,0,0,0,.707-.293L58,18.414V22h2V16A1,1,0,0,0,59,15Z"/><path fill="#353535" d="M7,60V2H5V4H2V6H5V18H2v2H5V32H2v2H5V46H2v2H5V61a1,1,0,0,0,1,1H62V60Z"/><rect width="2" height="2" x="13" y="6" fill="#353535"/><rect width="12" height="2" x="17" y="6" fill="#353535"/><rect width="16" height="2" x="13" y="10" fill="#353535"/><rect width="16" height="2" x="13" y="14" fill="#353535"/></g></svg>