<svg xmlns="http://www.w3.org/2000/svg" width="64" height="64" viewBox="0 0 64 64"><g transform="translate(-1268 -1051.364)"><path fill="#f09695" d="M1327.5 1090.8654a1.9999849 1.9999849 0 0 1-2 2 1.9999849 1.9999849 0 0 1-2-2 1.9999849 1.9999849 0 0 1 2-2 1.9999849 1.9999849 0 0 1 2 2zM1276.5 1085.8654a1.9999849 1.9999849 0 0 1-2 2 1.9999849 1.9999849 0 0 1-2-2 1.9999849 1.9999849 0 0 1 2-2 1.9999849 1.9999849 0 0 1 2 2zM1292 1090.8654a.99998701.99998701 0 0 1-1 1 .99998701.99998701 0 0 1-1-1 .99998701.99998701 0 0 1 1-1 .99998701.99998701 0 0 1 1 1zM1287.5 1066.3654a1.5 1.5 0 0 1-1.5 1.5 1.5 1.5 0 0 1-1.5-1.5 1.5 1.5 0 0 1 1.5-1.5 1.5 1.5 0 0 1 1.5 1.5zM1314.5 1078.3622a1.5 1.5 0 0 1-1.5 1.5 1.5 1.5 0 0 1-1.5-1.5 1.5 1.5 0 0 1 1.5-1.5 1.5 1.5 0 0 1 1.5 1.5z"/><g transform="translate(150 55)"><path fill="none" stroke="#000" stroke-linecap="round" stroke-linejoin="round" d="m 1153.6563,1038.8622 -20.1563,0 0,-19 33,0 0,19 -10.3125,0"/><path fill="none" stroke="#000" stroke-dashoffset="1" stroke-linejoin="round" d="m 1126.5,1041.8622 0,2 c 0,1.662 1.338,3 3,3 l 41,0 c 1.662,0 3,-1.338 3,-3 l 0,-2 z"/><path fill="none" stroke="#000" d="M1169.5 1041.8622l0-23c0-1.108-.892-2-2-2l-35 0c-1.108 0-2 .892-2 2l0 23M1156.5 1041.8622l0 0c0 1.108-.892 2-2 2l-8 0c-1.108 0-2-.892-2-2l0 0c2 0 9 0 12 0z"/></g><path fill="#f09695" d="m 1302.8683,1088.3024 3.5,6.0621 c 0.277,0.4798 0.1137,1.089 -0.3661,1.366 -0.4798,0.277 -1.089,0.1138 -1.366,-0.366 l -3.5,-6.0621"/><path fill="none" stroke="#cc4441" d="m 1302.8683,1088.3024 3.5,6.0621 c 0.277,0.4798 0.1137,1.089 -0.3661,1.366 -0.4798,0.277 -1.089,0.1138 -1.366,-0.366 l -3.5,-6.0621"/><path fill="#474545" stroke="#cc4441" stroke-linecap="round" stroke-linejoin="round" d="m 1303.3013,1088.0524 -2.5981,1.5"/><path fill="#f09695" d="m 1968.8926,90.5 a 4.5015549,4.5015549 0 0 0 -2.1446,0.601562 4.5015549,4.5015549 0 0 0 -1.6464,6.148438 4.5015549,4.5015549 0 0 0 6.1484,1.648438 4.5015549,4.5015549 0 0 0 1.6484,-6.148438 4.5015549,4.5015549 0 0 0 -4.0058,-2.25 z m 0.1074,2 a 2.4999905,2.4999905 0 0 1 2.5,2.5 2.4999905,2.4999905 0 0 1 -2.5,2.5 2.4999905,2.4999905 0 0 1 -2.5,-2.5 2.4999905,2.4999905 0 0 1 2.5,-2.5 z" transform="translate(-670 988.362)"/><path fill="#cc4441" fill-rule="evenodd" d="M1294.2012 98.595703l-1.211 1.210938.7071.707029 1.1679-1.167967c-.2401-.227319-.461-.479414-.664-.75zm-1.918 1.917967l-.7832.78319.6758.7383.8144-.81446zM1293.0176 94.716797l-16.6932 2.002917.1567.989692 16.5658-1.988703c-.039-.334205-.046-.670767-.029-1.003906zM1288.0391 79.550781l-.7754.632813.6308.77539.7754-.632812zm1.2636 1.550781l-.7754.632813.6309.775391.7754-.632813zm1.2618 1.550782l-.7754.632812.6308.775391.7754-.632813zm1.2636 1.550781l-.7754.632813.6309.77539.7754-.632812zm1.2617 1.550781l-.7753.632813.6328.77539.7754-.632812zm1.2637 1.550782l-.7754.632812.6309.775391.7754-.632813zm1.2637 1.550781l-.7754.632812.5723.703125c.186-.138963.3802-.269889.5859-.388672.033-.01911.068-.03238.1016-.05078l.1464-.121094zM1304.9395 95.742188c-.042.332707-.1109.659657-.2071.980468l.8379.248047.2832-.958984zm1.873.554687l-.2832.958984.957.283203.2852-.958984zm1.918.568359l-.2852.957032.959.285156.2852-.958984zm1.9179.566407l-.2851.958984.959.285156.2832-.958984zM1312.5645 98l-.2833.958984.959.285157.2832-.958985zm1.9179.568359l-.2832.958985.959.285156.2832-.958984zm1.918.56836l-.2832.958981.957.28516.2852-.958985zm1.918.568359l-.2852.958982.959.28321.2851-.957036zm1.9179.568362l-.2851.95898.959.2832.2851-.95898zm1.916.56836l-.2832.95898.959.2832.2832-.95898zM1311.5042 90.124652l-6.8753 2.814801c.1163.319077.2042.643063.2637.970703l7.0204-2.874631z" color="#000" font-family="sans-serif" font-weight="400" overflow="visible" transform="translate(0 988.362)" white-space="normal" style="line-height:normal;text-indent:0;text-align:start;text-decoration-line:none;text-decoration-style:solid;text-decoration-color:#000;text-transform:none;block-progression:tb;isolation:auto;mix-blend-mode:normal"/><path fill="none" stroke="#cc4441" d="M1327.5 1090.8654a1.9999849 1.9999849 0 0 1-2 2 1.9999849 1.9999849 0 0 1-2-2 1.9999849 1.9999849 0 0 1 2-2 1.9999849 1.9999849 0 0 1 2 2zM1276.5 1085.8654a1.9999849 1.9999849 0 0 1-2 2 1.9999849 1.9999849 0 0 1-2-2 1.9999849 1.9999849 0 0 1 2-2 1.9999849 1.9999849 0 0 1 2 2zM1292 1090.8654a.99998701.99998701 0 0 1-1 1 .99998701.99998701 0 0 1-1-1 .99998701.99998701 0 0 1 1-1 .99998701.99998701 0 0 1 1 1zM1287.5 1066.3654a1.5 1.5 0 0 1-1.5 1.5 1.5 1.5 0 0 1-1.5-1.5 1.5 1.5 0 0 1 1.5-1.5 1.5 1.5 0 0 1 1.5 1.5zM1314.5 1078.3622a1.5 1.5 0 0 1-1.5 1.5 1.5 1.5 0 0 1-1.5-1.5 1.5 1.5 0 0 1 1.5-1.5 1.5 1.5 0 0 1 1.5 1.5z"/><path fill="none" stroke="#000" d="m 1301.5,1083.3622 a 2.4999905,2.4999905 0 0 1 -2.5,2.5 2.4999905,2.4999905 0 0 1 -2.5,-2.5 2.4999905,2.4999905 0 0 1 2.5,-2.5 2.4999905,2.4999905 0 0 1 2.5,2.5 z"/><path fill="none" stroke="#cc4441" d="m 1302.8984,1081.1113 a 4.5015549,4.5015549 0 0 1 -1.6477,6.1494 4.5015549,4.5015549 0 0 1 -6.1492,-1.6477 4.5015549,4.5015549 0 0 1 1.6476,-6.1492 4.5015549,4.5015549 0 0 1 6.1493,1.6475 z"/><path fill="#cc4441" d="m 1301.6853,1087.2534 0.75,1.299 -0.8661,0.5 -0.75,-1.299 z"/></g></svg>