<svg xmlns="http://www.w3.org/2000/svg"  viewBox="0 0 100 100" width="100px" height="100px"><path fill="#ee3e54" d="M13,27c-1.105,0-2,0.895-2,2s0.895,2,2,2s2-0.895,2-2S14.105,27,13,27z"/><path fill="#f1bc19" d="M77,12c-0.552,0-1,0.448-1,1s0.448,1,1,1s1-0.448,1-1S77.552,12,77,12z"/><path fill="#fce0a2" d="M50,13c-20.435,0-37,16.565-37,37s16.565,37,37,37s37-16.565,37-37S70.435,13,50,13z"/><path fill="#f1bc19" d="M83,11c-2.209,0-4,1.791-4,4s1.791,4,4,4s4-1.791,4-4S85.209,11,83,11z"/><path fill="#ee3e54" d="M87,22c-1.105,0-2,0.895-2,2s0.895,2,2,2s2-0.895,2-2S88.105,22,87,22z"/><path fill="#fbcd59" d="M81,74c-1.105,0-2,0.895-2,2s0.895,2,2,2s2-0.895,2-2S82.105,74,81,74z M15,59c-2.209,0-4,1.791-4,4 c0,2.209,1.791,4,4,4s4-1.791,4-4C19,60.791,17.209,59,15,59z"/><path fill="#ee3e54" d="M25,85c-1.105,0-2,0.895-2,2s0.895,2,2,2s2-0.895,2-2S26.105,85,25,85z"/><path fill="#fff" d="M18.5,51c-1.381,0-2.5,1.119-2.5,2.5s1.119,2.5,2.5,2.5s2.5-1.119,2.5-2.5S19.881,51,18.5,51z"/><path fill="#f1bc19" d="M21,66c-0.552,0-1,0.448-1,1s0.448,1,1,1s1-0.448,1-1S21.552,66,21,66z"/><path fill="#fff" d="M80,33c-0.552,0-1,0.448-1,1s0.448,1,1,1s1-0.448,1-1S80.552,33,80,33z"/><circle cx="50" cy="50" r="23.958" fill="#cdcdcd"/><path fill="#472b29" d="M50,26.4c13.013,0,23.6,10.587,23.6,23.6S63.013,73.6,50,73.6S26.4,63.013,26.4,50	S36.987,26.4,50,26.4 M50,25c-13.807,0-25,11.193-25,25s11.193,25,25,25s25-11.193,25-25S63.807,25,50,25L50,25z"/><circle cx="50" cy="50" r="20.5" fill="#b5b5b5"/><g><path fill="#868686" d="M41.216,57.969c-0.395-0.395-0.707-0.707-1.12-1.709c-1.179,1.179-2.946,2.946-2.121,4.95 c2.003,0.825,3.771-0.943,4.95-2.121C41.923,58.676,41.611,58.364,41.216,57.969z"/><path fill="#868686" d="M47.5,63.625c0-2.125,0-7,0-7l-2.012,0.784l-1.856-1.856l-1.768-1.768l0.761-2.16 c0,0-5.125,0-7.125,0c4.582-4.582,6.529-4.416,8.226-4.68c0.57-0.089,1.098-0.367,1.512-0.768 c7.596-7.357,13.634-8.239,16.072-8.302c-0.063,2.437-0.945,8.476-8.302,16.072c-0.401,0.414-0.679,0.942-0.768,1.512 C51.976,57.156,52.082,59.043,47.5,63.625z"/><circle cx="53.885" cy="45.3" r="2.5" fill="#b5b5b5" transform="rotate(-45.001 53.884 45.3)"/></g><g><path fill="#472b29" d="M39.019,61.922c-0.399,0-0.811-0.076-1.234-0.25c-0.123-0.051-0.221-0.149-0.272-0.272 c-0.952-2.312,1.04-4.304,2.23-5.494c0.118-0.119,0.287-0.168,0.452-0.137c0.164,0.033,0.3,0.146,0.364,0.3 c0.375,0.91,0.627,1.163,1.011,1.546c0.37,0.369,0.636,0.636,1.546,1.011c0.155,0.064,0.267,0.201,0.3,0.364 c0.033,0.164-0.019,0.333-0.137,0.452C42.305,60.415,40.798,61.922,39.019,61.922z M38.365,60.819 c1.376,0.429,2.665-0.59,3.695-1.581c-0.598-0.315-0.881-0.6-1.198-0.917s-0.601-0.601-0.917-1.198 C38.955,58.154,37.937,59.44,38.365,60.819z"/><path fill="#472b29" d="M47.5,64.125c-0.064,0-0.129-0.012-0.191-0.038C47.122,64.01,47,63.827,47,63.625v-6.269 l-1.331,0.518c-0.185,0.073-0.395,0.028-0.535-0.112l-3.624-3.624c-0.136-0.136-0.182-0.338-0.118-0.52l0.526-1.494H35.5 c-0.202,0-0.385-0.122-0.462-0.309c-0.078-0.187-0.035-0.402,0.108-0.545c4.268-4.268,6.35-4.538,8.023-4.755 c0.163-0.021,0.322-0.042,0.479-0.066c0.451-0.07,0.892-0.294,1.241-0.633c7.399-7.167,13.455-8.365,16.406-8.442 c0.135,0.005,0.27,0.05,0.367,0.146c0.097,0.097,0.15,0.229,0.146,0.367c-0.077,2.951-1.276,9.007-8.443,16.406 c-0.338,0.349-0.563,0.79-0.633,1.242l-0.06,0.423c-0.224,1.65-0.503,3.703-4.82,8.02C47.758,64.074,47.63,64.125,47.5,64.125z M47.5,56.125c0.099,0,0.198,0.03,0.282,0.087C47.918,56.306,48,56.46,48,56.625v5.767c3.263-3.476,3.494-5.179,3.682-6.567 l0.063-0.442c0.102-0.655,0.423-1.288,0.903-1.784c6.513-6.725,7.928-12.23,8.135-15.198c-2.968,0.208-8.474,1.622-15.198,8.135 c-0.497,0.481-1.13,0.802-1.783,0.903c-0.165,0.025-0.332,0.047-0.504,0.069c-1.407,0.183-3.132,0.406-6.563,3.617h5.89 c0.162,0,0.314,0.079,0.408,0.211c0.094,0.133,0.117,0.302,0.063,0.455l-0.657,1.863l3.17,3.17l1.708-0.665 C47.377,56.136,47.439,56.125,47.5,56.125z"/><path fill="#472b29" d="M53.875,48.05C53.875,48.05,53.875,48.05,53.875,48.05c-0.732-0.003-1.419-0.289-1.935-0.806 c-0.52-0.519-0.806-1.21-0.806-1.944c0-0.735,0.286-1.425,0.806-1.945c1.072-1.072,2.816-1.072,3.889,0 c0.52,0.52,0.806,1.21,0.806,1.945c0,0.734-0.286,1.425-0.806,1.944c-0.098,0.098-0.256,0.098-0.354,0s-0.098-0.256,0-0.354 c0.425-0.425,0.659-0.99,0.659-1.591s-0.234-1.166-0.659-1.591c-0.877-0.877-2.305-0.877-3.182,0 c-0.425,0.425-0.659,0.99-0.659,1.591s0.234,1.166,0.659,1.591c0.422,0.423,0.984,0.657,1.583,0.659 c0.138,0,0.25,0.113,0.249,0.251C54.125,47.938,54.013,48.05,53.875,48.05z"/></g><g><path fill="#472b29" d="M69.623,44.5c-0.215,0-0.414-0.14-0.481-0.357c-0.089-0.29-0.184-0.576-0.286-0.861 c-0.394-1.104-0.891-2.178-1.479-3.198c-0.14-0.24-0.057-0.55,0.183-0.689c0.24-0.142,0.548-0.058,0.687,0.185 c0.618,1.071,1.141,2.202,1.555,3.361c0.107,0.3,0.207,0.6,0.3,0.905c0.081,0.266-0.067,0.549-0.334,0.631 C69.72,44.493,69.671,44.5,69.623,44.5z"/><path fill="#472b29" d="M49.999,71c-11.58,0-21.001-9.421-21.001-21.001S38.419,29,49.999,29 c6.011,0,11.744,2.583,15.73,7.086c0.301,0.34,0.592,0.691,0.87,1.05c0.17,0.22,0.131,0.536-0.088,0.707 c-0.219,0.174-0.535,0.132-0.706-0.089c-0.266-0.342-0.543-0.675-0.829-0.999c-3.795-4.288-9.254-6.748-14.978-6.748 c-11.025,0-19.995,8.968-19.995,19.991s8.97,19.991,19.995,19.991s19.995-8.968,19.995-19.991c0-1.004-0.075-2.014-0.223-3 c-0.041-0.274,0.148-0.532,0.423-0.573c0.282-0.041,0.531,0.148,0.572,0.424C70.921,47.885,71,48.945,71,49.999 C71,61.579,61.58,71,49.999,71z"/></g></svg>