<svg xmlns="http://www.w3.org/2000/svg"  viewBox="0 0 100 100" width="100px" height="100px"><circle cx="50" cy="50" r="37" fill="#cee1f4"/><circle cx="13" cy="29" r="2" fill="#78a0cf"/><circle cx="77" cy="13" r="1" fill="#f1bc19"/><circle cx="83" cy="15" r="4" fill="#f1bc19"/><circle cx="87" cy="24" r="2" fill="#78a0cf"/><circle cx="81" cy="76" r="2" fill="#fbcd59"/><circle cx="15" cy="63" r="4" fill="#fbcd59"/><circle cx="25" cy="87" r="2" fill="#78a0cf"/><circle cx="18.5" cy="45.5" r="2.5" fill="#fff"/><circle cx="80" cy="34" r="1" fill="#fff"/><circle cx="18" cy="56" r="1" fill="#f1bc19"/><path fill="#ef9922" d="M32.667,72.3c-2.739,0-4.966-2.228-4.966-4.967V32.667c0-2.739,2.228-4.967,4.966-4.967h34.667 c2.739,0,4.967,2.228,4.967,4.967v34.666c0,2.739-2.228,4.967-4.967,4.967H32.667z"/><path fill="#472b29" d="M67.333,28.4c2.353,0,4.267,1.914,4.267,4.267v34.667c0,2.353-1.914,4.267-4.267,4.267H32.667 c-2.353,0-4.267-1.914-4.267-4.267V32.667c0-2.353,1.914-4.267,4.267-4.267H67.333 M67.333,27H32.667 C29.537,27,27,29.537,27,32.667v34.667C27,70.463,29.537,73,32.667,73h34.667C70.463,73,73,70.463,73,67.333V32.667 C73,29.537,70.463,27,67.333,27L67.333,27z"/><path fill="#f5e690" d="M62.135,46.606c-1.748,1.747-4.11,1.943-5.943,0.111l15.641-15.636 c-0.11-1.565-1.351-2.805-2.916-2.915L53.186,43.892c-2.124-2.123-0.569-5.261,0.201-6.031c1.944-1.943,0-3.887-1.944-2.915 c0,0-2.916,1.943-3.888,4.858s-3.939,4.418-5.832,4.858c-2.351,0.546-4.577,1.18-6.791,3.321 c-3.118,3.017-4.751,7.942,0.959,14.169c6.609,7.207,12.475,5.876,15.991,2.661c2.173-1.987,3.298-5.176,3.449-6.548 c0.53-4.829,4.86-5.83,4.86-5.83s2.916-0.972,4.86-3.887C66.995,45.635,64.079,44.663,62.135,46.606z"/><path fill="#472b29" d="M45.52,67.893c-2.78,0.001-6.208-1.269-9.998-5.401c-6.917-7.544-2.96-12.909-0.938-14.866 c2.287-2.212,4.535-2.87,7.025-3.449c1.595-0.371,4.542-1.742,5.471-4.529c1.014-3.043,3.96-5.033,4.085-5.116 c1.196-0.602,2.503-0.361,3.158,0.548c0.517,0.718,0.635,1.918-0.584,3.137c-0.295,0.295-0.841,1.167-1.048,2.248 c-0.201,1.053-0.026,1.958,0.52,2.696l15.352-15.346c0.103-0.103,0.245-0.149,0.389-0.146c1.801,0.126,3.254,1.579,3.38,3.379 c0.01,0.145-0.043,0.286-0.146,0.389L56.919,46.699c1.499,1.202,3.364,1.05,4.863-0.446c1.19-1.191,2.864-1.515,3.813-0.737 c0.315,0.259,1.238,1.262-0.128,3.312c-2.017,3.023-4.992,4.042-5.118,4.084c-0.207,0.051-4.038,1.007-4.521,5.41 c-0.142,1.292-1.211,4.671-3.609,6.862C51.231,66.087,48.836,67.893,45.52,67.893z M51.667,35.394c0.008,0-2.736,1.866-3.638,4.569 c-1,2.998-3.961,4.668-6.193,5.188c-2.344,0.544-4.455,1.16-6.557,3.193c-2.251,2.178-5.117,6.823,0.979,13.472 c7.476,8.152,13.181,4.557,15.286,2.63c2.166-1.979,3.166-5.109,3.289-6.233c0.563-5.122,5.198-6.252,5.245-6.263l0,0 c-0.008,0,2.741-0.955,4.557-3.677c0.599-0.897,0.724-1.657,0.326-1.983c-0.476-0.392-1.585-0.217-2.473,0.671l0,0 c-2.022,2.021-4.694,2.065-6.65,0.111c-0.094-0.094-0.146-0.221-0.146-0.354s0.053-0.26,0.146-0.354L71.31,30.898 c-0.175-1.132-1.077-2.033-2.209-2.208L53.54,44.245c-0.195,0.195-0.512,0.195-0.707,0c-1.306-1.306-1.331-2.88-1.122-3.971 c0.234-1.227,0.85-2.294,1.322-2.767c0.658-0.658,0.838-1.348,0.479-1.845C53.198,35.228,52.465,34.994,51.667,35.394 L51.667,35.394z M62.136,46.606h0.01H62.136z"/><g><rect width="3" height="8" x="43.879" y="50.121" fill="#ef9922" transform="rotate(-45.001 45.378 54.122)"/><path fill="#472b29" d="M47.146,58.511c-0.133,0-0.26-0.053-0.354-0.146l-5.657-5.657c-0.195-0.195-0.195-0.512,0-0.707 l2.121-2.121c0.195-0.195,0.512-0.195,0.707,0l5.657,5.656c0.195,0.195,0.195,0.512,0,0.707L47.5,58.364 C47.406,58.458,47.279,58.511,47.146,58.511z M42.197,52.354l4.95,4.95l1.414-1.415l-4.95-4.949L42.197,52.354z"/></g><g><rect width="3" height="8" x="48.121" y="45.879" fill="#ef9922" transform="rotate(-45.001 49.621 49.88)"/><path fill="#472b29" d="M51.389,54.268c-0.128,0-0.256-0.049-0.354-0.146l-5.656-5.656c-0.195-0.195-0.195-0.512,0-0.707 l2.121-2.122c0.187-0.188,0.519-0.188,0.707,0l5.657,5.657c0.094,0.094,0.146,0.221,0.146,0.354s-0.053,0.26-0.146,0.354 l-2.122,2.121C51.645,54.219,51.517,54.268,51.389,54.268z M46.439,48.111l4.949,4.949l1.415-1.414l-4.95-4.95L46.439,48.111z"/></g><g><path fill="#472b29" d="M66.875,69.75h-16.25c-0.138,0-0.25-0.112-0.25-0.25s0.112-0.25,0.25-0.25h16.25 c1.31,0,2.375-1.065,2.375-2.375v-9.75c0-0.138,0.112-0.25,0.25-0.25s0.25,0.112,0.25,0.25v9.75 C69.75,68.46,68.46,69.75,66.875,69.75z"/></g><g><path fill="#472b29" d="M41.5,69.75h-8.25c-1.585,0-2.875-1.29-2.875-2.875v-6.75c0-0.138,0.112-0.25,0.25-0.25 s0.25,0.112,0.25,0.25v6.75c0,1.31,1.065,2.375,2.375,2.375h8.25c0.138,0,0.25,0.112,0.25,0.25S41.638,69.75,41.5,69.75z"/></g><g><path fill="#472b29" d="M69.5,54.625c-0.138,0-0.25-0.112-0.25-0.25v-17c0-0.138,0.112-0.25,0.25-0.25s0.25,0.112,0.25,0.25 v17C69.75,54.513,69.638,54.625,69.5,54.625z"/></g><g><path fill="#472b29" d="M62.25,30.75h-9.063c-0.138,0-0.25-0.112-0.25-0.25s0.112-0.25,0.25-0.25h9.063 c0.138,0,0.25,0.112,0.25,0.25S62.388,30.75,62.25,30.75z"/></g><g><path fill="#472b29" d="M30.5,47.125c-0.138,0-0.25-0.112-0.25-0.25v-13.75c0-1.585,1.29-2.875,2.875-2.875h17.188 c0.138,0,0.25,0.112,0.25,0.25s-0.112,0.25-0.25,0.25H33.125c-1.31,0-2.375,1.065-2.375,2.375v13.75 C30.75,47.013,30.638,47.125,30.5,47.125z"/></g><g><path fill="#472b29" d="M49.27,64.114c-0.079,0-0.156-0.037-0.205-0.106c-0.08-0.113-0.052-0.27,0.061-0.349 c2.646-1.853,3.313-4.802,3.584-6.859c0.019-0.137,0.145-0.227,0.28-0.215c0.138,0.019,0.233,0.144,0.216,0.281 c-0.284,2.15-0.986,5.236-3.793,7.203C49.369,64.1,49.319,64.114,49.27,64.114z"/></g><g><path fill="#472b29" d="M45.474,65.384c-2.222,0-4.177-1.167-5.566-2.318c-0.106-0.088-0.121-0.246-0.033-0.352 c0.088-0.106,0.245-0.122,0.352-0.033c1.77,1.467,4.502,2.963,7.474,1.762c0.126-0.056,0.273,0.009,0.326,0.138 c0.052,0.128-0.01,0.273-0.138,0.325C47.06,65.241,46.25,65.384,45.474,65.384z"/></g><g><path fill="#472b29" d="M39.032,62.177c-0.064,0-0.128-0.024-0.177-0.073c-0.635-0.639-1.229-1.34-1.766-2.087 c-0.081-0.111-0.055-0.268,0.057-0.349c0.112-0.08,0.268-0.057,0.349,0.058c0.521,0.725,1.098,1.405,1.714,2.024 c0.097,0.098,0.097,0.257-0.001,0.354C39.159,62.152,39.096,62.177,39.032,62.177z"/></g><g><path fill="#472b29" d="M64.917,35.333c-0.064,0-0.128-0.024-0.177-0.073c-0.098-0.098-0.098-0.256,0-0.354l3.875-3.875 c0.098-0.098,0.256-0.098,0.354,0s0.098,0.256,0,0.354l-3.875,3.875C65.045,35.309,64.981,35.333,64.917,35.333z"/></g><g><path fill="#472b29" d="M54.5,45.75c-0.064,0-0.128-0.024-0.177-0.073c-0.098-0.098-0.098-0.256,0-0.354l9.021-9.021 c0.098-0.098,0.256-0.098,0.354,0s0.098,0.256,0,0.354l-9.021,9.021C54.628,45.726,54.564,45.75,54.5,45.75z"/></g></svg>