<svg xmlns="http://www.w3.org/2000/svg"  viewBox="0 0 100 100" width="100px" height="100px"><path fill="#f1bc19" d="M79 12A1 1 0 1 0 79 14A1 1 0 1 0 79 12Z"/><path fill="#c0e5e4" d="M50 13A37 37 0 1 0 50 87A37 37 0 1 0 50 13Z"/><path fill="#f1bc19" d="M85 11A4 4 0 1 0 85 19A4 4 0 1 0 85 11Z"/><path fill="#00a5a5" d="M13 27A2 2 0 1 0 13 31A2 2 0 1 0 13 27Z"/><path fill="#fbcd59" d="M80 76A2 2 0 1 0 80 80 2 2 0 1 0 80 76zM26 72A4 4 0 1 0 26 80 4 4 0 1 0 26 72z"/><path fill="#00a5a5" d="M27 85A2 2 0 1 0 27 89A2 2 0 1 0 27 85Z"/><path fill="#fff" d="M58.5 78A2.5 2.5 0 1 0 58.5 83 2.5 2.5 0 1 0 58.5 78zM23.029 68A.971.971 0 1 0 23.029 69.94200000000001.971.971 0 1 0 23.029 68z"/><path fill="#f1bc19" d="M85 30A1 1 0 1 0 85 32A1 1 0 1 0 85 30Z"/><path fill="#fff" d="M78 66A2 2 0 1 0 78 70 2 2 0 1 0 78 66zM79 33A1 1 0 1 0 79 35 1 1 0 1 0 79 33z"/><g><path fill="#fff" d="M67.954,68.644H46.372c-3.109,0-5.629-2.52-5.629-5.629V36.674c0-3.109,2.52-5.629,5.629-5.629 h21.582c3.109,0,5.629,2.52,5.629,5.629v26.341C73.584,66.124,71.063,68.644,67.954,68.644z"/><path fill="#00c2d9" d="M48.603,40.037c-0.587,3.509-0.939,7.081-1.035,10.643h4.565c0.203,0,0.405,0.084,0.544,0.23 c0.139,0.146,0.213,0.345,0.203,0.554c-0.181,2.736-0.181,5.515,0,8.251c0.192,2.851,0.587,5.703,1.173,8.512h2.88v1.462H30.736 c-2.613,0-4.736-2.078-4.736-4.637V34.637C26,32.078,28.123,30,30.736,30h26.197v1.462h-6.368 C49.744,34.282,49.083,37.154,48.603,40.037z"/><path fill="none" stroke="#4e2724" stroke-linecap="round" stroke-linejoin="round" stroke-miterlimit="10" stroke-width=".5" d="M64.347 41.064c0-1.117 0-2.233 0-3.35-.684 0-1.368 0-2.053 0M64.347 43.073c0 .67 0 1.34 0 2.01M37.322 60.111c-1.528-.566-2.792-1.145-3.763-1.629M40.743 61.2c-.721-.193-1.406-.399-2.052-.611M46.216 62.248c-1.202-.141-2.344-.332-3.421-.558M48.269 62.432c-.702-.044-1.387-.106-2.053-.184M56.479 62.061c-1.989.306-4.165.481-6.5.44-.581-.01-1.151-.034-1.71-.069"/><path fill="none" stroke="#1f212b" stroke-linecap="round" stroke-linejoin="round" stroke-miterlimit="10" stroke-width=".5" d="M61.879,60.826c-0.627,0.192-1.288,0.376-1.979,0.548"/><path fill="none" stroke="#4e2724" stroke-linecap="round" stroke-linejoin="round" stroke-miterlimit="10" stroke-width=".5" d="M67.768,58.482c-1.348,0.672-3.347,1.568-5.889,2.345"/><path fill="#4e2724" d="M69.264,30H30.736C28.123,30,26,32.078,26,34.637v30.414c0,2.559,2.123,4.637,4.736,4.637h38.528 c2.613,0,4.736-2.078,4.736-4.637V34.637C74,32.078,71.877,30,69.264,30z M30.736,68.227c-1.792,0-3.243-1.42-3.243-3.175V34.637 c0-1.755,1.451-3.175,3.243-3.175h18.272c-0.779,2.747-1.397,5.546-1.877,8.345c-0.64,3.812-1.003,7.718-1.077,11.593 c0,0.188,0.075,0.386,0.213,0.522s0.331,0.219,0.533,0.219h4.544c-0.139,2.559-0.128,5.128,0.043,7.677 c0.192,2.82,0.576,5.63,1.141,8.408H30.736z M72.507,65.052c0,1.755-1.451,3.175-3.243,3.175H54.053 c-0.587-2.81-0.981-5.661-1.173-8.512c-0.181-2.737-0.181-5.515,0-8.251c0.011-0.209-0.064-0.407-0.203-0.554 c-0.139-0.146-0.341-0.23-0.544-0.23h-4.565c0.096-3.562,0.448-7.134,1.035-10.643c0.48-2.883,1.141-5.755,1.963-8.575h18.699 c1.792,0,3.243,1.42,3.243,3.175V65.052z"/><path fill="none" stroke="#4e2724" stroke-linecap="round" stroke-linejoin="round" stroke-miterlimit="10" stroke-width="1.4" d="M38.267 39.922c0 1.393 0 2.785 0 4.178M61.733 39.922c0 1.393 0 2.785 0 4.178M34 55.589c2.783 1.509 9.351 4.582 18.133 4.178 6.986-.321 12.214-2.697 14.933-4.178"/><path fill="none" stroke="#4e2724" stroke-linecap="round" stroke-linejoin="round" stroke-miterlimit="10" stroke-width=".5" d="M29.733 43.839c0 .435 0 .87 0 1.306M29.733 39.4c0 .957 0 1.915 0 2.872M40.4 33.656c-3.556 0-7.111 0-10.667 0 0 1.393 0 2.785 0 4.178"/></g></svg>