<svg xmlns="http://www.w3.org/2000/svg" id="Layer_1" width="28" height="28" viewBox="0 0 28 28"><g id="g4142"><circle id="circle3934-5-9-7" cx="14" cy="14" r="14" fill="#239fdb" fill-rule="evenodd"/><path id="XMLID_2066_" fill="#fff" d="m 14.449491,6.0299622 c -1.244772,0 -2.340253,1.248702 -3.033203,3.1875 -0.223036,-0.03059 -0.452914,-0.07457 -0.666016,-0.08789 -1.7999997,-0.1 -2.9999997,0.300782 -3.4999997,1.3007818 -0.5346625,1.015858 -0.075506,2.37421 1.0585938,3.724609 -1.0654852,1.301586 -1.4789539,2.586277 -0.9589844,3.574219 0.4,0.8 1.5,1.300781 3.0000003,1.300781 l 0.499999,0 c 0.19886,-0.0117 0.407475,-0.05306 0.611329,-0.07813 0.695077,1.873145 1.767985,3.078129 2.988281,3.078129 1.22082,0 2.295193,-1.205538 2.990234,-3.080078 0.203007,0.02661 0.41471,0.06791 0.609375,0.08008 l 0.5,0 c 1.5,0 2.6,-0.500781 3,-1.300781 0.520173,-0.988328 0.105485,-2.299283 -0.960937,-3.613281 1.135087,-1.339609 1.595418,-2.669292 1.060547,-3.685547 -0.5,-0.8999998 -1.7,-1.4007818 -3.5,-1.3007818 -0.217229,0.01278 -0.444835,0.0553 -0.667969,0.08398 -0.693043,-1.936367 -1.787379,-3.183591 -3.03125,-3.183591 z m 0,1 c 0.71245,0 1.476531,0.893283 2.029297,2.355469 -0.678256,0.14984 -1.368533,0.357571 -2.060547,0.6210938 -0.686631,-0.2559798 -1.356759,-0.4584888 -2.003906,-0.6074218 0.553112,-1.470437 1.320485,-2.369141 2.035156,-2.369141 z m -4.099609,2.9999998 0.40039,0 c 0.128505,0.0086 0.269687,0.03634 0.402344,0.05078 -0.154911,0.576962 -0.275907,1.193525 -0.359375,1.853517 C 10.15228,12.382455 9.5642076,12.845317 9.0744911,13.319024 8.2666982,12.327791 7.958869,11.41355 8.2502723,10.830743 c 0.2000001,-0.5 0.9996094,-0.800781 2.0996097,-0.800781 z m 7.798828,0 0.40039,0 c 1.1,0 1.901172,0.300781 2.201172,0.800781 0.298636,0.5475 -0.02519,1.466899 -0.878906,2.486328 -0.500408,-0.490664 -1.10968,-0.965056 -1.771484,-1.419921 -0.08322,-0.645309 -0.201799,-1.24904 -0.353516,-1.814454 0.133017,-0.01469 0.272269,-0.04406 0.402344,-0.05273 z m -6.009766,0.201172 c 0.363473,0.07404 0.732316,0.160173 1.109375,0.273437 -0.165819,0.07703 -0.333668,0.14242 -0.498047,0.22461 -0.298025,0.156463 -0.568139,0.326559 -0.847656,0.492187 0.06643,-0.352389 0.148626,-0.674631 0.236328,-0.990234 z m 4.621094,0.0039 c 0.08575,0.308978 0.168971,0.622568 0.234375,0.966797 -0.278791,-0.159798 -0.548509,-0.32406 -0.845703,-0.472656 -0.164605,-0.07797 -0.327778,-0.139554 -0.492188,-0.212891 0.376604,-0.115693 0.742885,-0.205705 1.103516,-0.28125 z m -2.291016,0.699219 c 0.428602,0.17423 0.85886,0.372085 1.28125,0.595703 0.501874,0.244155 0.962593,0.505335 1.396485,0.773437 0.06024,0.548878 0.103515,1.119565 0.103515,1.726563 0,0.548902 -0.02935,1.072412 -0.07617,1.574219 -0.441818,0.284391 -0.910983,0.562819 -1.423828,0.826172 -0.430058,0.215029 -0.854206,0.402903 -1.271484,0.572265 -0.411602,-0.169198 -0.822871,-0.357505 -1.228518,-0.572259 -0.555591,-0.270288 -1.057249,-0.562413 -1.529297,-0.861329 -0.04465,-0.490811 -0.07226,-1.003512 -0.07226,-1.539062 0,-0.592829 0.04007,-1.15194 0.09766,-1.689453 0.435582,-0.279351 0.898128,-0.551627 1.40234,-0.810547 0.446759,-0.223379 0.887403,-0.421606 1.320312,-0.595703 z m -0.01953,1.595709 c -0.822505,0 -1.5,0.677495 -1.5,1.5 0,0.822505 0.677495,1.5 1.5,1.5 0.822505,0 1.5,-0.677495 1.5,-1.5 0,-0.822505 -0.677495,-1.5 -1.5,-1.5 z m 3.751953,0.486328 c 0.4077,0.306827 0.758151,0.617416 1.076172,0.927734 -0.315821,0.311115 -0.664046,0.623461 -1.068359,0.935547 0.01396,-0.282893 0.04101,-0.557612 0.04101,-0.849609 0,-0.348381 -0.02905,-0.678438 -0.04883,-1.013672 z m -7.507813,0.05859 c -0.01758,0.316619 -0.04492,0.626856 -0.04492,0.955082 0,0.282589 0.02598,0.548182 0.03906,0.822266 -0.382578,-0.295021 -0.7157542,-0.591463 -1.0156237,-0.888672 0.3041136,-0.295151 0.6380757,-0.593043 1.0214837,-0.888672 z m 3.75586,0.455082 c 0.282065,0 0.5,0.217935 0.5,0.5 0,0.282065 -0.217935,0.5 -0.5,0.5 -0.282065,0 -0.5,-0.217935 -0.5,-0.5 0,-0.282065 0.217935,-0.5 0.5,-0.5 z m 5.560547,1.228516 c 0.735625,0.944794 1.019881,1.8118 0.740234,2.371093 -0.3,0.6 -1.2,0.900782 -2.5,0.800782 -0.151977,-0.01013 -0.318842,-0.0422 -0.476562,-0.06055 0.126623,-0.489452 0.226374,-1.006407 0.302734,-1.554688 0.732107,-0.501521 1.393031,-1.022621 1.933594,-1.55664 z m -11.109375,0.05664 c 0.5390787,0.5325 1.19762,1.049616 1.925781,1.539063 0.07641,0.538466 0.177715,1.04607 0.302734,1.527343 -0.125074,0.0135 -0.256443,0.04066 -0.378906,0.04883 -1.2999996,0.1 -2.3015622,-0.200782 -2.6015621,-0.800782 -0.2812907,-0.515699 0.00642,-1.366074 0.7519531,-2.314453 z m 8.070312,2.195313 c -0.04782,0.247006 -0.103622,0.47684 -0.162109,0.705078 -0.2558,-0.05326 -0.514405,-0.114901 -0.777344,-0.1875 0.07229,-0.03502 0.146761,-0.06166 0.21875,-0.09766 0.253873,-0.133283 0.480181,-0.2799 0.720703,-0.419922 z m -5.039062,0.01758 c 0.239222,0.134391 0.464379,0.276135 0.716797,0.402344 0.08287,0.03926 0.165196,0.06932 0.248046,0.107421 -0.271645,0.07541 -0.539822,0.143278 -0.802734,0.197266 -0.05892,-0.228301 -0.113884,-0.459826 -0.162109,-0.707031 z m 2.548828,1.160156 c 0.683883,0.250636 1.350983,0.452588 1.994141,0.595703 -0.534553,1.398242 -1.276845,2.246092 -2.025391,2.246092 -0.746146,0 -1.485327,-0.842301 -2.019531,-2.232422 0.674198,-0.143761 1.36146,-0.351857 2.050781,-0.609375 z"/></g></svg>