<svg xmlns="http://www.w3.org/2000/svg" xmlns:xlink="http://www.w3.org/1999/xlink" width="32" height="32" viewBox="0 0 32 32"><defs><linearGradient id="a"><stop offset="0" stop-color="#ffd800"/><stop offset="1" stop-color="#ff6100"/></linearGradient><linearGradient id="b" x1="906.952" x2="931.379" y1="515.915" y2="546.094" gradientTransform="matrix(1.02524 0 0 1.02524 -925.812 491.682)" gradientUnits="userSpaceOnUse" xlink:href="#a"/></defs><g transform="translate(0 -1020.362)"><rect width="32" height="32" y="1020.362" fill="url(#b)" rx="6.763" ry="6.763"/><path fill="#fff" style="text-indent:0;text-align:start;line-height:normal;text-transform:none;block-progression:tb" d="M 22.5 9.125 A 0.47043488 0.47043488 0 0 0 22.15625 9.59375 L 22.15625 11 L 20.75 11 A 0.47043488 0.47043488 0 0 0 20.6875 11 A 0.47043488 0.47043488 0 0 0 20.75 11.9375 L 22.15625 11.9375 L 22.15625 13.34375 A 0.47043488 0.47043488 0 1 0 23.09375 13.34375 L 23.09375 11.9375 L 24.5 11.9375 A 0.47043488 0.47043488 0 1 0 24.5 11 L 23.09375 11 L 23.09375 9.59375 A 0.47043488 0.47043488 0 0 0 22.625 9.125 A 0.47043488 0.47043488 0 0 0 22.5 9.125 z M 15.5625 11 C 13.749568 11 12.281267 12.4996 12.28125 14.3125 C 12.281267 16.1255 13.749568 17.59375 15.5625 17.59375 C 17.375432 17.59375 18.874983 16.1255 18.875 14.3125 C 18.874982 12.4996 17.375432 11 15.5625 11 z M 15.5625 11.9375 C 16.867003 11.9375 17.937487 13.008 17.9375 14.3125 C 17.937487 15.6171 16.867003 16.65625 15.5625 16.65625 C 14.257997 16.65625 13.218762 15.6171 13.21875 14.3125 C 13.218762 13.008 14.257997 11.9375 15.5625 11.9375 z M 15.5625 18.53125 C 11.961148 18.53125 9 21.0226 9 24.1875 L 9.9375 24.1875 C 9.9375 21.6194 12.388386 19.46875 15.5625 19.46875 C 18.736614 19.46875 21.21875 21.6194 21.21875 24.1875 L 22.15625 24.1875 C 22.15625 21.0226 19.163852 18.53125 15.5625 18.53125 z " color="#000" font-family="sans-serif" font-weight="400" overflow="visible" transform="translate(0 1020.362)"/></g></svg>